<svg xmlns="http://www.w3.org/2000/svg" width="1200" height="630" viewBox="0 0 1200 630">
  <defs>
    <style>
      @import url('https://fonts.googleapis.com/css2?family=Sora:wght@400;600;700;800&amp;family=DM+Sans:wght@400;500&amp;display=swap');
    </style>
    <radialGradient id="bgGlow" cx="38%" cy="50%" r="58%">
      <stop offset="0%" style="stop-color:#0D1628;stop-opacity:1"/>
      <stop offset="100%" style="stop-color:#0A0A0F;stop-opacity:1"/>
    </radialGradient>
    <linearGradient id="faceTop" x1="0%" y1="0%" x2="100%" y2="100%">
      <stop offset="0%" style="stop-color:#72D9FF"/>
      <stop offset="100%" style="stop-color:#40C4FF"/>
    </linearGradient>
    <linearGradient id="faceLeft" x1="0%" y1="0%" x2="100%" y2="0%">
      <stop offset="0%" style="stop-color:#0B3F7A"/>
      <stop offset="100%" style="stop-color:#1565C0"/>
    </linearGradient>
    <linearGradient id="faceRight" x1="0%" y1="0%" x2="100%" y2="0%">
      <stop offset="0%" style="stop-color:#1A6DB5"/>
      <stop offset="100%" style="stop-color:#0D47A1"/>
    </linearGradient>
  </defs>

  <rect width="1200" height="630" fill="url(#bgGlow)"/>

  <!-- Dot grid -->
  <g opacity="0.04" fill="white">
    <circle cx="60"  cy="60"  r="1.1"/><circle cx="120" cy="60"  r="1.1"/><circle cx="180" cy="60"  r="1.1"/><circle cx="240" cy="60"  r="1.1"/><circle cx="300" cy="60"  r="1.1"/><circle cx="360" cy="60"  r="1.1"/><circle cx="420" cy="60"  r="1.1"/><circle cx="480" cy="60"  r="1.1"/><circle cx="540" cy="60"  r="1.1"/><circle cx="600" cy="60"  r="1.1"/><circle cx="660" cy="60"  r="1.1"/><circle cx="720" cy="60"  r="1.1"/><circle cx="780" cy="60"  r="1.1"/><circle cx="840" cy="60"  r="1.1"/><circle cx="900" cy="60"  r="1.1"/><circle cx="960" cy="60"  r="1.1"/><circle cx="1020" cy="60" r="1.1"/><circle cx="1080" cy="60" r="1.1"/><circle cx="1140" cy="60" r="1.1"/>
    <circle cx="60"  cy="120" r="1.1"/><circle cx="120" cy="120" r="1.1"/><circle cx="180" cy="120" r="1.1"/><circle cx="240" cy="120" r="1.1"/><circle cx="300" cy="120" r="1.1"/><circle cx="360" cy="120" r="1.1"/><circle cx="420" cy="120" r="1.1"/><circle cx="480" cy="120" r="1.1"/><circle cx="540" cy="120" r="1.1"/><circle cx="600" cy="120" r="1.1"/><circle cx="660" cy="120" r="1.1"/><circle cx="720" cy="120" r="1.1"/><circle cx="780" cy="120" r="1.1"/><circle cx="840" cy="120" r="1.1"/><circle cx="900" cy="120" r="1.1"/><circle cx="960" cy="120" r="1.1"/><circle cx="1020" cy="120" r="1.1"/><circle cx="1080" cy="120" r="1.1"/><circle cx="1140" cy="120" r="1.1"/>
    <circle cx="60"  cy="180" r="1.1"/><circle cx="120" cy="180" r="1.1"/><circle cx="180" cy="180" r="1.1"/><circle cx="240" cy="180" r="1.1"/><circle cx="300" cy="180" r="1.1"/><circle cx="360" cy="180" r="1.1"/><circle cx="420" cy="180" r="1.1"/><circle cx="480" cy="180" r="1.1"/><circle cx="540" cy="180" r="1.1"/><circle cx="600" cy="180" r="1.1"/><circle cx="660" cy="180" r="1.1"/><circle cx="720" cy="180" r="1.1"/><circle cx="780" cy="180" r="1.1"/><circle cx="840" cy="180" r="1.1"/><circle cx="900" cy="180" r="1.1"/><circle cx="960" cy="180" r="1.1"/><circle cx="1020" cy="180" r="1.1"/><circle cx="1080" cy="180" r="1.1"/><circle cx="1140" cy="180" r="1.1"/>
    <circle cx="60"  cy="240" r="1.1"/><circle cx="120" cy="240" r="1.1"/><circle cx="180" cy="240" r="1.1"/><circle cx="240" cy="240" r="1.1"/><circle cx="300" cy="240" r="1.1"/><circle cx="360" cy="240" r="1.1"/><circle cx="420" cy="240" r="1.1"/><circle cx="480" cy="240" r="1.1"/><circle cx="540" cy="240" r="1.1"/><circle cx="600" cy="240" r="1.1"/><circle cx="660" cy="240" r="1.1"/><circle cx="720" cy="240" r="1.1"/><circle cx="780" cy="240" r="1.1"/><circle cx="840" cy="240" r="1.1"/><circle cx="900" cy="240" r="1.1"/><circle cx="960" cy="240" r="1.1"/><circle cx="1020" cy="240" r="1.1"/><circle cx="1080" cy="240" r="1.1"/><circle cx="1140" cy="240" r="1.1"/>
    <circle cx="60"  cy="300" r="1.1"/><circle cx="120" cy="300" r="1.1"/><circle cx="180" cy="300" r="1.1"/><circle cx="240" cy="300" r="1.1"/><circle cx="300" cy="300" r="1.1"/><circle cx="360" cy="300" r="1.1"/><circle cx="420" cy="300" r="1.1"/><circle cx="480" cy="300" r="1.1"/><circle cx="540" cy="300" r="1.1"/><circle cx="600" cy="300" r="1.1"/><circle cx="660" cy="300" r="1.1"/><circle cx="720" cy="300" r="1.1"/><circle cx="780" cy="300" r="1.1"/><circle cx="840" cy="300" r="1.1"/><circle cx="900" cy="300" r="1.1"/><circle cx="960" cy="300" r="1.1"/><circle cx="1020" cy="300" r="1.1"/><circle cx="1080" cy="300" r="1.1"/><circle cx="1140" cy="300" r="1.1"/>
    <circle cx="60"  cy="360" r="1.1"/><circle cx="120" cy="360" r="1.1"/><circle cx="180" cy="360" r="1.1"/><circle cx="240" cy="360" r="1.1"/><circle cx="300" cy="360" r="1.1"/><circle cx="360" cy="360" r="1.1"/><circle cx="420" cy="360" r="1.1"/><circle cx="480" cy="360" r="1.1"/><circle cx="540" cy="360" r="1.1"/><circle cx="600" cy="360" r="1.1"/><circle cx="660" cy="360" r="1.1"/><circle cx="720" cy="360" r="1.1"/><circle cx="780" cy="360" r="1.1"/><circle cx="840" cy="360" r="1.1"/><circle cx="900" cy="360" r="1.1"/><circle cx="960" cy="360" r="1.1"/><circle cx="1020" cy="360" r="1.1"/><circle cx="1080" cy="360" r="1.1"/><circle cx="1140" cy="360" r="1.1"/>
    <circle cx="60"  cy="420" r="1.1"/><circle cx="120" cy="420" r="1.1"/><circle cx="180" cy="420" r="1.1"/><circle cx="240" cy="420" r="1.1"/><circle cx="300" cy="420" r="1.1"/><circle cx="360" cy="420" r="1.1"/><circle cx="420" cy="420" r="1.1"/><circle cx="480" cy="420" r="1.1"/><circle cx="540" cy="420" r="1.1"/><circle cx="600" cy="420" r="1.1"/><circle cx="660" cy="420" r="1.1"/><circle cx="720" cy="420" r="1.1"/><circle cx="780" cy="420" r="1.1"/><circle cx="840" cy="420" r="1.1"/><circle cx="900" cy="420" r="1.1"/><circle cx="960" cy="420" r="1.1"/><circle cx="1020" cy="420" r="1.1"/><circle cx="1080" cy="420" r="1.1"/><circle cx="1140" cy="420" r="1.1"/>
    <circle cx="60"  cy="480" r="1.1"/><circle cx="120" cy="480" r="1.1"/><circle cx="180" cy="480" r="1.1"/><circle cx="240" cy="480" r="1.1"/><circle cx="300" cy="480" r="1.1"/><circle cx="360" cy="480" r="1.1"/><circle cx="420" cy="480" r="1.1"/><circle cx="480" cy="480" r="1.1"/><circle cx="540" cy="480" r="1.1"/><circle cx="600" cy="480" r="1.1"/><circle cx="660" cy="480" r="1.1"/><circle cx="720" cy="480" r="1.1"/><circle cx="780" cy="480" r="1.1"/><circle cx="840" cy="480" r="1.1"/><circle cx="900" cy="480" r="1.1"/><circle cx="960" cy="480" r="1.1"/><circle cx="1020" cy="480" r="1.1"/><circle cx="1080" cy="480" r="1.1"/><circle cx="1140" cy="480" r="1.1"/>
    <circle cx="60"  cy="540" r="1.1"/><circle cx="120" cy="540" r="1.1"/><circle cx="180" cy="540" r="1.1"/><circle cx="240" cy="540" r="1.1"/><circle cx="300" cy="540" r="1.1"/><circle cx="360" cy="540" r="1.1"/><circle cx="420" cy="540" r="1.1"/><circle cx="480" cy="540" r="1.1"/><circle cx="540" cy="540" r="1.1"/><circle cx="600" cy="540" r="1.1"/><circle cx="660" cy="540" r="1.1"/><circle cx="720" cy="540" r="1.1"/><circle cx="780" cy="540" r="1.1"/><circle cx="840" cy="540" r="1.1"/><circle cx="900" cy="540" r="1.1"/><circle cx="960" cy="540" r="1.1"/><circle cx="1020" cy="540" r="1.1"/><circle cx="1080" cy="540" r="1.1"/><circle cx="1140" cy="540" r="1.1"/>
    <circle cx="60"  cy="600" r="1.1"/><circle cx="120" cy="600" r="1.1"/><circle cx="180" cy="600" r="1.1"/><circle cx="240" cy="600" r="1.1"/><circle cx="300" cy="600" r="1.1"/><circle cx="360" cy="600" r="1.1"/><circle cx="420" cy="600" r="1.1"/><circle cx="480" cy="600" r="1.1"/><circle cx="540" cy="600" r="1.1"/><circle cx="600" cy="600" r="1.1"/><circle cx="660" cy="600" r="1.1"/><circle cx="720" cy="600" r="1.1"/><circle cx="780" cy="600" r="1.1"/><circle cx="840" cy="600" r="1.1"/><circle cx="900" cy="600" r="1.1"/><circle cx="960" cy="600" r="1.1"/><circle cx="1020" cy="600" r="1.1"/><circle cx="1080" cy="600" r="1.1"/><circle cx="1140" cy="600" r="1.1"/>
  </g>

  <!-- Left accent bar -->
  <rect x="72" y="140" width="2.5" height="348" rx="1.2" fill="rgba(64,196,255,0.16)"/>

  <!-- GEM -->
  <g transform="translate(100, 110)">
    <polygon points="0,64 160,50 80,138"          fill="url(#faceTop)"/>
    <polygon points="0,64 80,138 80,294 0,172"    fill="url(#faceLeft)"/>
    <polygon points="160,50 182,172 80,294 80,138" fill="url(#faceRight)"/>
    <line x1="0"   y1="64"  x2="80" y2="138" stroke="rgba(255,255,255,0.12)" stroke-width="0.8"/>
    <line x1="160" y1="50"  x2="80" y2="138" stroke="rgba(255,255,255,0.08)" stroke-width="0.8"/>
    <line x1="80"  y1="138" x2="80" y2="294" stroke="rgba(255,255,255,0.06)" stroke-width="0.8"/>
    <polygon points="0,64 160,50 182,172 80,294 0,172" fill="none" stroke="rgba(255,255,255,0.14)" stroke-width="1"/>
    <!-- Gold bolt above gem top -->
    <path d="M 92,-28 L 68,-28 L 52,42 L 72,42 L 54,100 L 108,100 L 116,42 L 96,42 Z"
      fill="#FFD600" stroke="rgba(255,220,0,0.3)" stroke-width="1.5" stroke-linejoin="round"/>
  </g>

  <!-- VOLTEX -->
  <text x="376" y="244"
    fill="#F0F0F5"
    font-family="'Sora', sans-serif"
    font-size="84"
    font-weight="800"
    letter-spacing="-2">Voltex</text>

  <!-- NOTES -->
  <text x="382" y="314"
    fill="#40C4FF"
    font-family="'Sora', sans-serif"
    font-size="38"
    font-weight="400"
    letter-spacing="10">NOTES</text>

  <!-- Tagline -->
  <text x="376" y="378"
    fill="#4A4A60"
    font-family="'DM Sans', sans-serif"
    font-size="21"
    font-weight="400"
    letter-spacing="0.3">Your second brain. Open-source. Yours forever.</text>

  <line x1="376" y1="406" x2="1110" y2="406" stroke="rgba(255,255,255,0.05)" stroke-width="1"/>

  <!-- Pills -->
  <g font-family="'DM Sans', sans-serif" font-size="14" font-weight="500">
    <rect x="376" y="424" width="122" height="30" rx="15" fill="rgba(64,196,255,0.07)" stroke="rgba(64,196,255,0.2)" stroke-width="0.8"/>
    <text x="437" y="444" fill="#40C4FF" text-anchor="middle">Graph View</text>

    <rect x="510" y="424" width="112" height="30" rx="15" fill="rgba(64,196,255,0.07)" stroke="rgba(64,196,255,0.2)" stroke-width="0.8"/>
    <text x="566" y="444" fill="#40C4FF" text-anchor="middle">Markdown</text>

    <rect x="634" y="424" width="118" height="30" rx="15" fill="rgba(64,196,255,0.07)" stroke="rgba(64,196,255,0.2)" stroke-width="0.8"/>
    <text x="693" y="444" fill="#40C4FF" text-anchor="middle">Cloud Sync</text>

    <rect x="764" y="424" width="96" height="30" rx="15" fill="rgba(64,196,255,0.07)" stroke="rgba(64,196,255,0.2)" stroke-width="0.8"/>
    <text x="812" y="444" fill="#40C4FF" text-anchor="middle">Plugins</text>

    <rect x="872" y="424" width="108" height="30" rx="15" fill="rgba(64,196,255,0.07)" stroke="rgba(64,196,255,0.2)" stroke-width="0.8"/>
    <text x="926" y="444" fill="#40C4FF" text-anchor="middle">Wikilinks</text>
  </g>

  <!-- URL -->
  <text x="376" y="556"
    fill="#2B2B44"
    font-family="'DM Sans', sans-serif"
    font-size="15"
    font-weight="400"
    letter-spacing="1">voltex.devlune.in</text>

  <!-- DevLune badge -->
  <g transform="translate(898, 537)">
    <rect width="232" height="36" rx="18" fill="rgba(255,255,255,0.03)" stroke="rgba(255,255,255,0.07)" stroke-width="0.8"/>
    <path d="M18 18 C18 12.5 22 9 27 9 C22.5 10.5 20 14 20 18 C20 22 22.5 25.5 27 27 C22 27 18 23.5 18 18Z" fill="#4F8EF7"/>
    <text x="44" y="23" fill="#3A3A58" font-family="'DM Sans', sans-serif" font-size="13" font-weight="500" letter-spacing="0.2">A DevLune Studios project</text>
  </g>

  <rect x="0" y="0" width="1200" height="630" fill="none" stroke="rgba(255,255,255,0.04)" stroke-width="1.5"/>
</svg>